<svg width="12035" height="1902" viewBox="0 0 12035 1902" fill="none" xmlns="http://www.w3.org/2000/svg">
<path d="M6255.16 565.444L6021.23 1372.6H5903.11L5715.51 722.938L5520.96 1372.6L5404 1373.76L5178.18 565.444H5290.51L5466.53 1249.85L5661.08 565.444H5779.2L5964.49 1247.53L6141.67 565.444H6255.16Z" fill="#3D3D3D"/>
<path d="M6743.37 726.412C6791.24 726.412 6834.47 736.834 6873.08 757.679C6911.68 777.752 6941.79 808.247 6963.4 849.164C6985.79 890.082 6996.99 939.878 6996.99 998.552V1372.6H6892.76V1013.61C6892.76 950.3 6876.94 902.048 6845.28 868.851C6813.63 834.882 6770.4 817.897 6715.58 817.897C6659.99 817.897 6615.6 835.268 6582.41 870.009C6549.98 904.751 6533.77 955.318 6533.77 1021.71V1372.6H6428.39V515.648H6533.77V828.32C6554.61 795.894 6583.18 770.803 6619.46 753.047C6656.52 735.29 6697.82 726.412 6743.37 726.412Z" fill="#3D3D3D"/>
<path d="M7503.8 1383.02C7444.36 1383.02 7390.31 1369.51 7341.68 1342.49C7293.81 1315.47 7255.98 1277.25 7228.19 1227.84C7201.17 1177.66 7187.66 1119.76 7187.66 1054.14C7187.66 989.288 7201.55 932.158 7229.35 882.748C7257.91 832.566 7296.51 794.35 7345.15 768.101C7393.79 741.08 7448.22 727.57 7508.43 727.57C7568.65 727.57 7623.08 741.08 7671.72 768.101C7720.36 794.35 7758.57 832.18 7786.36 881.59C7814.93 931 7829.21 988.516 7829.21 1054.14C7829.21 1119.76 7814.54 1177.66 7785.21 1227.84C7756.64 1277.25 7717.65 1315.47 7668.24 1342.49C7618.83 1369.51 7564.02 1383.02 7503.8 1383.02ZM7503.8 1290.38C7541.63 1290.38 7577.14 1281.5 7610.34 1263.74C7643.54 1245.99 7670.17 1219.35 7690.25 1183.84C7711.09 1148.33 7721.51 1105.09 7721.51 1054.14C7721.51 1003.18 7711.48 959.951 7691.41 924.437C7671.33 888.924 7645.08 862.675 7612.66 845.69C7580.23 827.934 7545.11 819.055 7507.28 819.055C7468.67 819.055 7433.16 827.934 7400.74 845.69C7369.08 862.675 7343.61 888.924 7324.31 924.437C7305 959.951 7295.35 1003.18 7295.35 1054.14C7295.35 1105.86 7304.62 1149.48 7323.15 1185C7342.45 1220.51 7367.92 1247.15 7399.58 1264.9C7431.23 1281.89 7465.97 1290.38 7503.8 1290.38Z" fill="#3D3D3D"/>
<path d="M8202.85 611.765V690.512L7956.19 558.495V467.01L8202.85 611.765Z" fill="#3D3D3D"/>
<path d="M8605.66 1383.02C8557.03 1383.02 8513.41 1374.92 8474.8 1358.7C8436.2 1341.72 8405.71 1318.56 8383.32 1289.22C8360.93 1259.11 8348.58 1224.76 8346.26 1186.16H8455.12C8458.21 1217.81 8472.87 1243.67 8499.12 1263.74C8526.14 1283.82 8561.27 1293.85 8604.51 1293.85C8644.65 1293.85 8676.3 1284.98 8699.46 1267.22C8722.63 1249.46 8734.21 1227.07 8734.21 1200.05C8734.21 1172.26 8721.85 1151.8 8697.15 1138.68C8672.44 1124.78 8634.23 1111.27 8582.5 1098.14C8535.41 1085.79 8496.81 1073.44 8466.7 1061.09C8437.36 1047.96 8411.88 1029.05 8390.27 1004.34C8369.42 978.865 8359 945.668 8359 904.751C8359 872.325 8368.65 842.602 8387.95 815.581C8407.25 788.56 8434.66 767.329 8470.17 751.889C8505.69 735.676 8546.22 727.57 8591.77 727.57C8662.02 727.57 8718.77 745.326 8762 780.84C8805.23 816.353 8828.39 864.991 8831.48 926.753H8726.1C8723.78 893.556 8710.27 866.921 8685.57 846.848C8661.64 826.776 8629.21 816.739 8588.29 816.739C8550.46 816.739 8520.35 824.845 8497.97 841.058C8475.58 857.271 8464.38 878.502 8464.38 904.751C8464.38 925.595 8470.94 942.966 8484.07 956.863C8497.97 969.987 8514.95 980.796 8535.02 989.288C8555.87 997.008 8584.43 1005.89 8620.72 1015.92C8666.27 1028.28 8703.32 1040.63 8731.89 1052.98C8760.46 1064.56 8784.77 1082.32 8804.85 1106.25C8825.69 1130.18 8836.5 1161.45 8837.27 1200.05C8837.27 1234.79 8827.62 1266.06 8808.32 1293.85C8789.02 1321.65 8761.61 1343.65 8726.1 1359.86C8691.36 1375.3 8651.21 1383.02 8605.66 1383.02Z" fill="#3D3D3D"/>
<path d="M9887.69 1193.1H9535.65L9470.79 1372.6H9359.62L9651.45 570.076H9773.04L10063.7 1372.6H9952.54L9887.69 1193.1ZM9857.58 1107.41L9711.67 699.777L9565.75 1107.41H9857.58Z" fill="#3D3D3D"/>
<path d="M10354.2 515.648V1372.6H10248.8V515.648H10354.2Z" fill="#3D3D3D"/>
<path d="M10552.3 1052.98C10552.3 988.13 10565.4 931.386 10591.7 882.748C10617.9 833.338 10653.8 795.122 10699.4 768.101C10745.7 741.08 10797.4 727.57 10854.6 727.57C10904 727.57 10949.9 739.15 10992.4 762.311C11034.8 784.7 11067.3 814.423 11089.7 851.481V515.648H11196.2V1372.6H11089.7V1253.32C11068.8 1291.15 11037.9 1322.42 10997 1347.12C10956.1 1371.06 10908.2 1383.02 10853.4 1383.02C10797.1 1383.02 10745.7 1369.13 10699.4 1341.33C10653.8 1313.54 10617.9 1274.55 10591.7 1224.37C10565.4 1174.19 10552.3 1117.06 10552.3 1052.98ZM11089.7 1054.14C11089.7 1006.27 11080 964.583 11060.7 929.069C11041.4 893.556 11015.1 866.535 10982 848.006C10949.5 828.706 10913.6 819.055 10874.3 819.055C10834.9 819.055 10799 828.32 10766.6 846.848C10734.1 865.377 10708.3 892.398 10689 927.912C10669.7 963.425 10660 1005.11 10660 1052.98C10660 1101.62 10669.7 1144.08 10689 1180.37C10708.3 1215.88 10734.1 1243.29 10766.6 1262.59C10799 1281.12 10834.9 1290.38 10874.3 1290.38C10913.6 1290.38 10949.5 1281.12 10982 1262.59C11015.1 1243.29 11041.4 1215.88 11060.7 1180.37C11080 1144.08 11089.7 1102 11089.7 1054.14Z" fill="#3D3D3D"/>
<path d="M11709 1383.02C11649.5 1383.02 11595.5 1369.51 11546.8 1342.49C11499 1315.47 11461.1 1277.25 11433.3 1227.84C11406.3 1177.66 11392.8 1119.76 11392.8 1054.14C11392.8 989.288 11406.7 932.158 11434.5 882.748C11463.1 832.566 11501.7 794.35 11550.3 768.101C11598.9 741.08 11653.4 727.57 11713.6 727.57C11773.8 727.57 11828.2 741.08 11876.9 768.101C11925.5 794.35 11963.7 832.18 11991.5 881.59C12020.1 931 12034.4 988.516 12034.4 1054.14C12034.4 1119.76 12019.7 1177.66 11990.4 1227.84C11961.8 1277.25 11922.8 1315.47 11873.4 1342.49C11824 1369.51 11769.2 1383.02 11709 1383.02ZM11709 1290.38C11746.8 1290.38 11782.3 1281.5 11815.5 1263.74C11848.7 1245.99 11875.3 1219.35 11895.4 1183.84C11916.2 1148.33 11926.7 1105.09 11926.7 1054.14C11926.7 1003.18 11916.6 959.951 11896.6 924.437C11876.5 888.924 11850.2 862.675 11817.8 845.69C11785.4 827.934 11750.3 819.055 11712.4 819.055C11673.8 819.055 11638.3 827.934 11605.9 845.69C11574.2 862.675 11548.8 888.924 11529.5 924.437C11510.2 959.951 11500.5 1003.18 11500.5 1054.14C11500.5 1105.86 11509.8 1149.48 11528.3 1185C11547.6 1220.51 11573.1 1247.15 11604.7 1264.9C11636.4 1281.89 11671.1 1290.38 11709 1290.38Z" fill="#3D3D3D"/>
<g clip-path="url(#clip0)">
<path d="M36.4861 713.933C137.206 874.353 240.107 1031.07 352.208 1184.1C448.15 1315.07 583.64 1485.57 712.009 1614.83C772.514 1675.75 843.6 1738.24 926.092 1760.46C944.814 1765.51 968.216 1762.47 977.577 1760.46C1001.02 1755.43 1011.56 1751.85 1022.09 1746.42C1060.7 1726.54 1084.69 1710.03 1122.08 1677.41C1261.37 1555.93 1387.58 1417.65 1500.35 1269.43C1617.28 1121.81 1729.1 969.069 1837.5 813.768C1945.9 658.468 2053.45 501.462 2147.35 341.895L2224.17 216.46C2238.68 191.715 2242.94 185.742 2243.8 171.236C2242.05 157.227 2232.28 142.124 2224.17 135.397C2212.04 125.337 2199.99 119.704 2184.9 115.771C2163.83 110.277 2142.45 106.003 2120.89 102.972C2077.17 98.7085 2031.09 98.7085 1987.38 102.972C1943.53 106.766 1902.17 114.476 1859.7 126.011C1847.52 129.574 1837.02 137.394 1830.13 148.045C1823.24 158.696 1820.4 171.469 1822.14 184.035C1822.82 190.368 1824.86 196.479 1828.11 201.954C1832.38 209.634 1840.92 221.58 1846.89 230.113L1886.16 289.844L1968.1 405.039C1972.42 411.888 1973.94 420.135 1972.36 428.076C1970.77 436.017 1966.19 443.044 1959.56 447.704C1953.06 451.71 1945.33 453.226 1937.8 451.971C1930.26 450.716 1923.44 446.775 1918.59 440.878L1828.11 329.949L1783.73 273.631L1760.68 243.766C1751.12 229.46 1744.19 213.569 1740.2 196.834C1732.97 162.54 1738.63 126.786 1756.11 96.4047C1773.59 66.0236 1801.65 43.1472 1834.94 32.1481C1883.6 15.7404 1934.02 5.14281 1985.17 0.576084C2036.53 -3.41908 2088.2 -0.549464 2138.81 9.10906C2163.85 13.4841 2188.64 19.1808 2213.07 26.175C2228.04 30.1833 2242.4 36.2118 2255.75 44.0942C2270.86 52.5464 2284.2 63.8477 2295.01 77.3729C2317.08 103.564 2328.64 137.012 2327.45 171.236C2324.59 201.957 2313.7 231.386 2295.87 256.565L2224.17 383.707C2129.42 548.393 2026.99 712.226 1919.44 869.233C1811.9 1026.24 1702.64 1184.1 1586.56 1335.99C1470.41 1492.68 1341.05 1639.13 1199.89 1773.73C1162.01 1810.45 1119.89 1842.53 1074.42 1869.3C1048.08 1884.83 1019.17 1895.53 989.061 1900.87C953.961 1904.87 910.803 1900.89 878.163 1887.38C784.406 1839.4 712.548 1774.9 638.909 1687.86C397.985 1403.11 320.023 1257.47 4.90428 730.999C3.77547 728.958 3.10041 726.697 2.92519 724.372C2.74997 722.046 3.0787 719.71 3.88895 717.523C4.6992 715.336 5.9719 713.35 7.62018 711.699C9.26847 710.049 11.2535 708.773 13.4399 707.96C15.3215 706.752 17.4325 705.947 19.6402 705.595C21.8479 705.242 24.1048 705.35 26.2689 705.91C28.4331 706.471 30.4579 707.474 32.2162 708.854C33.9744 710.235 35.4282 711.964 36.4861 713.933Z" fill="#3D3D3D"/>
<path d="M4087.68 730.439C3971.18 953.332 3843.26 1170.07 3704.44 1379.8C3635.11 1486.75 3557.78 1588.29 3473.12 1683.57C3429.09 1733.7 3380.83 1779.95 3328.87 1821.81C3269.51 1874.61 3208.42 1901.16 3126.57 1901.16C3055.73 1901.16 2968.92 1857.07 2913.18 1806.45C2862.66 1763.87 2815.3 1717.67 2771.49 1668.21C2684.87 1574.95 2604.19 1476.34 2529.93 1372.97C2382.27 1168.18 2249.97 954.856 2122.78 737.265C2119.03 730.053 2118.21 721.673 2120.49 713.869C2122.76 706.065 2127.96 699.44 2135 695.371C2142.04 691.303 2150.38 690.106 2158.28 692.028C2166.18 693.951 2173.03 698.846 2177.41 705.693C2305.03 919.265 2446.15 1124.47 2599.93 1320.07C2675.46 1416.93 2757.3 1508.72 2844.9 1594.83C2888.21 1637.15 2936.01 1674.64 2987.44 1706.61C3029.05 1735.35 3104.28 1762.08 3126.57 1762.08C3141.14 1762.08 3185.52 1762.08 3258.02 1718.56C3308.29 1688.38 3354.97 1652.6 3397.15 1611.9C3485.7 1526.43 3567.86 1434.6 3642.98 1337.13C3794.8 1139.62 3933.11 932.08 4056.96 715.933C4059.31 711.718 4063.19 708.569 4067.8 707.14C4072.4 705.71 4077.39 706.108 4081.71 708.253C4085.02 710.767 4087.41 714.31 4088.49 718.326C4089.57 722.341 4089.29 726.602 4087.68 730.439Z" fill="#3D3D3D"/>
<path d="M1655.17 1183.6C1699.93 1198.87 1745.9 1210.29 1792.6 1217.73C1840.61 1225.6 1889.08 1230.45 1937.7 1232.24C2035.89 1235.74 2134.16 1227.72 2230.48 1208.34C2237.26 1207.08 2244.26 1208.51 2250 1212.34C2255.74 1216.16 2259.76 1222.08 2261.2 1228.82C2262.15 1235.33 2260.8 1241.96 2257.37 1247.57C2253.94 1253.18 2248.65 1257.42 2242.43 1259.54C2143.15 1288.24 2040.91 1305.42 1937.7 1310.74C1885.68 1313.72 1833.53 1313.72 1781.5 1310.74C1727.47 1305.39 1674.04 1295.11 1621.89 1280.02C1608.42 1276.51 1596.89 1267.8 1589.85 1255.8C1582.81 1243.8 1580.82 1229.49 1584.33 1216.02C1587.84 1202.56 1596.55 1191.04 1608.56 1184C1620.56 1176.95 1634.88 1174.97 1648.35 1178.48H1654.32L1655.17 1183.6Z" fill="#3D3D3D"/>
</g>
<defs>
<clipPath id="clip0">
<rect width="4089.42" height="1902" fill="white"/>
</clipPath>
</defs>
</svg>
